# xmcd CD database file
#
# Track frame offsets:
#	150
#	17313
#	33789
#	48830
#	63269
#	83554
#	108600
#	123573
#	138785
#	168867
#	184410
#	209987
#
# Disc length: 2938 seconds
#
# Revision: 1
# Processed by: cddbd v1.5.2PL0 Copyright (c) Steve Scherf et al.
# Submitted via: CDex 1.70beta2
#
DISCID=9b0b780c
DTITLE=Dotschy Reinhardt - Dotschy Reinhardt
DYEAR=2008
DGENRE=Jazz
TTITLE0=Suni
TTITLE1=Says Of Wine And Roses
TTITLE2=Raga Tschi
TTITLE3=Djangology
TTITLE4=Cowboys Never Cry
TTITLE5=Jagga
TTITLE6=Last Tango In Paris
TTITLE7=Pretty Butterfly
TTITLE8=Young Man At The Bar
TTITLE9=Ziro
TTITLE10=Lonely Shadows
TTITLE11=Me Hum Mato
EXTD=YEAR: 2008
EXTT0=
EXTT1=
EXTT2=
EXTT3=
EXTT4=
EXTT5=
EXTT6=
EXTT7=
EXTT8=
EXTT9=
EXTT10=
EXTT11=
PLAYORDER=
